<?xml version="1.0" encoding="UTF-8"?>
<svg xmlns="http://www.w3.org/2000/svg" version="1.1" viewBox="0 0 322.18 66.08">
  <!-- Generator: Adobe Illustrator 28.6.0, SVG Export Plug-In . SVG Version: 1.2.0 Build 709)  -->
  <g>
    <g id="Layer_1">
      <g>
        <g>
          <path d="M155.35,47.21h2.97l6.5,15.97h-2.83l-1.71-4.56h-6.98l-1.73,4.56h-2.69l6.48-15.97ZM159.48,56.49l-2.14-5.68c-.21-.55-.37-1-.55-1.53-.16.52-.36,1-.55,1.53l-2.14,5.68h5.38Z"/>
          <path d="M165.52,59.43h2.37c.07,1.41.98,2.3,2.6,2.3,1.39,0,2.3-.64,2.3-1.62,0-.8-.62-1.25-1.87-1.51l-1.51-.3c-2.19-.41-3.51-1.48-3.51-3.26,0-1.89,1.8-3.31,4.43-3.31,2.81,0,4.54,1.41,4.65,3.7h-2.37c-.11-1.21-.98-1.89-2.35-1.89-1.19,0-2.01.53-2.01,1.39,0,.78.55,1.16,1.87,1.42l1.53.3c2.08.41,3.47,1.39,3.47,3.29,0,2.05-1.76,3.6-4.61,3.6-3.06,0-4.88-1.62-5-4.11Z"/>
          <path d="M176.74,59.43h2.37c.07,1.41.98,2.3,2.6,2.3,1.39,0,2.3-.64,2.3-1.62,0-.8-.62-1.25-1.87-1.51l-1.51-.3c-2.19-.41-3.51-1.48-3.51-3.26,0-1.89,1.8-3.31,4.43-3.31,2.81,0,4.54,1.41,4.65,3.7h-2.37c-.11-1.21-.98-1.89-2.35-1.89-1.19,0-2.01.53-2.01,1.39,0,.78.55,1.16,1.87,1.42l1.53.3c2.08.41,3.47,1.39,3.47,3.29,0,2.05-1.76,3.6-4.61,3.6-3.06,0-4.88-1.62-5-4.11Z"/>
          <path d="M188.14,57.65c0-3.54,2.3-5.91,5.54-5.91s5.57,2.37,5.57,5.91-2.3,5.89-5.57,5.89-5.54-2.28-5.54-5.89ZM193.69,61.69c1.92,0,3.15-1.57,3.15-4.04s-1.25-4.04-3.15-4.04-3.13,1.53-3.13,4.04,1.21,4.04,3.13,4.04Z"/>
          <path d="M201.03,57.63c0-3.6,2.46-5.89,5.66-5.89,2.92,0,4.77,1.76,5.02,4.31h-2.42c-.14-1.35-1.03-2.44-2.62-2.44-1.87,0-3.22,1.6-3.22,4.02s1.28,4.06,3.19,4.06c1.67,0,2.6-1.05,2.78-2.49h2.37c-.3,2.6-2.08,4.33-5.22,4.33s-5.54-2.12-5.54-5.91Z"/>
          <path d="M213.98,47.59h2.58v2.62h-2.58v-2.62ZM214.08,52.11h2.37v11.06h-2.37v-11.06Z"/>
          <path d="M218.93,60.14c0-2.33,1.83-3.26,3.99-3.56l1.99-.3c.87-.11,1.16-.43,1.16-1.05,0-.98-.78-1.69-2.01-1.69-1.5,0-2.35.82-2.42,2.08h-2.42c.11-2.17,1.85-3.88,4.68-3.88,3.06,0,4.52,1.71,4.52,4.54v6.89h-2.21v-.5c0-.34.02-.66.05-1-.57,1.12-1.73,1.87-3.51,1.87-2.01,0-3.81-1.28-3.81-3.4ZM223.27,61.76c1.62,0,2.85-1.14,2.85-2.83v-1.41c-.18.23-.59.37-1.25.48l-1.25.25c-1.3.25-2.24.75-2.24,1.83s.84,1.69,1.89,1.69Z"/>
          <path d="M232.3,59.91v-5.89h-2.3v-1.92h2.3v-3.83h2.37v3.83h2.51v1.92h-2.51v5.57c0,1.23.55,1.78,1.62,1.78.27,0,.55-.02.84-.07v1.89c-.34.09-.89.16-1.46.16-2.01,0-3.38-.98-3.38-3.44Z"/>
          <path d="M238.59,57.61c0-3.44,2.28-5.86,5.41-5.86,3.33,0,5.22,2.33,5.22,5.91v.5h-8.24c.05,2.14,1.32,3.54,3.12,3.54,1.28,0,2.4-.62,2.62-2.03h2.39c-.23,2.1-1.96,3.88-5.04,3.88-3.31,0-5.5-2.1-5.5-5.93ZM246.74,56.47c-.02-1.73-1.05-2.92-2.76-2.92s-2.81,1.25-2.97,2.92h5.73Z"/>
          <path d="M251.48,60.14h3.03v3.03h-3.03v-3.03Z"/>
          <path d="M256.59,57.86h2.62c.14,2.26,1.89,3.56,4.22,3.56,2.19,0,3.63-.91,3.63-2.55,0-1.37-1.07-2.03-2.9-2.42l-2.56-.55c-2.46-.52-4.45-1.96-4.45-4.45,0-2.71,2.53-4.63,6.02-4.63,3.74,0,6,2.01,6.18,5.04h-2.62c-.09-1.69-1.37-2.92-3.65-2.92-1.92,0-3.35.89-3.35,2.28,0,1.3,1,1.94,2.74,2.3l2.76.59c2.51.53,4.43,1.92,4.43,4.47,0,2.81-2.3,4.95-6.32,4.95s-6.59-2.21-6.75-5.68Z"/>
          <path d="M273.19,59.91v-5.89h-2.3v-1.92h2.3v-3.83h2.37v3.83h2.51v1.92h-2.51v5.57c0,1.23.55,1.78,1.62,1.78.27,0,.55-.02.84-.07v1.89c-.34.09-.89.16-1.46.16-2.01,0-3.38-.98-3.38-3.44Z"/>
          <path d="M280.14,59.14v-7.03h2.37v6.62c0,1.83.71,2.94,2.28,2.94s2.6-1.21,2.6-3.22v-6.34h2.37v11.06h-2.35v-.57c0-.32.02-.66.07-.96-.55,1.12-1.71,1.89-3.38,1.89-2.4,0-3.97-1.53-3.97-4.4Z"/>
          <path d="M292.21,57.65c0-3.65,2.26-5.91,5.13-5.91,1.78,0,2.92.94,3.49,1.89-.05-.34-.05-.66-.05-.98v-5.45h2.37v15.97h-2.37v-.55c0-.36,0-.66.05-.98-.53.91-1.69,1.89-3.54,1.89-2.92,0-5.09-2.05-5.09-5.89ZM297.8,61.69c1.8,0,3.12-1.62,3.12-4.06s-1.3-4.02-3.12-4.02-3.15,1.64-3.15,4.04,1.3,4.04,3.15,4.04Z"/>
          <path d="M306.17,47.59h2.58v2.62h-2.58v-2.62ZM306.26,52.11h2.37v11.06h-2.37v-11.06Z"/>
          <path d="M311.07,57.65c0-3.54,2.3-5.91,5.54-5.91s5.57,2.37,5.57,5.91-2.3,5.89-5.57,5.89-5.54-2.28-5.54-5.89ZM316.61,61.69c1.92,0,3.15-1.57,3.15-4.04s-1.25-4.04-3.15-4.04-3.12,1.53-3.12,4.04,1.21,4.04,3.12,4.04Z"/>
        </g>
        <g>
          <path d="M62.66,53.22h-28.39c-2.66,0-4.82-2.16-4.82-4.82s2.16-4.83,4.82-4.83h28.39c2.66,0,4.83,2.16,4.83,4.83s-2.17,4.82-4.83,4.82"/>
          <path d="M4.81,66.08c-.84,0-1.7-.23-2.48-.69-2.28-1.37-3.02-4.34-1.64-6.62L34.61,2.34c1.37-2.28,4.34-3.02,6.61-1.64,2.28,1.37,3.02,4.33,1.64,6.61L8.94,63.74c-.9,1.5-2.5,2.34-4.13,2.34"/>
          <path d="M92.11,66.08c-1.63,0-3.23-.83-4.14-2.34L54.05,7.31c-1.37-2.28-.64-5.25,1.64-6.61,2.28-1.37,5.25-.64,6.61,1.64l33.94,56.43c1.37,2.28.64,5.25-1.64,6.62-.79.48-1.64.69-2.49.69"/>
        </g>
      </g>
    </g>
  </g>
</svg>