<?xml version="1.0" encoding="UTF-8"?>
<svg xmlns="http://www.w3.org/2000/svg" version="1.1" viewBox="0 0 1920 1080">
  <defs>
    <style>
      .cls-1 {
        fill: none;
        stroke: #000;
        stroke-miterlimit: 10;
      }
    </style>
  </defs>
  <!-- Generator: Adobe Illustrator 28.6.0, SVG Export Plug-In . SVG Version: 1.2.0 Build 709)  -->
  <g>
    <g id="Layer_1">
      <g>
        <path class="cls-1" d="M768.3,1080.18v-453.38c0-85.63,69.42-155.05,155.05-155.05h282.54c125.07,0,226.47-101.39,226.47-226.47V.18"/>
        <path class="cls-1" d="M737.5,1080.18v-448.23c0-104.72,84.89-189.61,189.61-189.61h274.88c111.25,0,201.43-90.18,201.43-201.43V.18"/>
        <path class="cls-1" d="M706.7,1080.18v-443.09c0-123.81,100.36-224.17,224.17-224.17h267.23c97.42,0,176.39-78.97,176.39-176.39V.18"/>
        <path class="cls-1" d="M675.9,1080.18v-437.95c0-142.89,115.84-258.73,258.73-258.73h259.57c83.59,0,151.35-67.76,151.35-151.35V.18"/>
      </g>
      <g>
        <path class="cls-1" d="M1920,471.74h-207.09c-138.79,0-251.29-112.51-251.29-251.29V.18"/>
        <path class="cls-1" d="M1920,442.33h-208.4c-120.39,0-217.98-97.59-217.98-217.98V.18"/>
        <path class="cls-1" d="M1920,412.91h-209.71c-101.99,0-184.67-82.68-184.67-184.67V.18"/>
        <path class="cls-1" d="M1920,383.5h-211.02c-83.59,0-151.35-67.76-151.35-151.35V.18"/>
      </g>
      <g>
        <path class="cls-1" d="M675.9.18v241.34c0,59.64,48.35,107.99,108,107.99h421.84c59.64,0,107.99-48.35,107.99-108V.18"/>
        <path class="cls-1" d="M1281.63.18v234.53c0,46.01-37.3,83.3-83.3,83.3h-407.77c-46.01,0-83.3-37.3-83.3-83.3V.18"/>
        <path class="cls-1" d="M1249.54.18v227.73c0,32.37-26.24,58.61-58.61,58.61h-393.71c-32.37,0-58.61-26.24-58.61-58.61V.18"/>
        <path class="cls-1" d="M1217.44.18v220.92c0,18.73-15.19,33.92-33.92,33.92h-379.65c-18.73,0-33.92-15.19-33.92-33.92V.18"/>
      </g>
      <g>
        <path class="cls-1" d="M643.01.18v458.1c0,80.11-64.94,145.04-145.04,145.04H0"/>
        <path class="cls-1" d="M609.94.18v454.76c0,64.07-51.94,116.01-116,116.01H0"/>
        <path class="cls-1" d="M576.87.18v451.42c0,48.03-38.94,86.97-86.96,86.97H0"/>
        <path class="cls-1" d="M543.81.18v448.08c0,31.99-25.93,57.93-57.92,57.93H0"/>
      </g>
      <g>
        <path class="cls-1" d="M894.75,1080.18v-447.32c0-20.84,16.89-37.73,37.73-37.73h987.52"/>
        <path class="cls-1" d="M863.95,1080.18v-449.15c0-36.07,29.24-65.31,65.31-65.31h990.74"/>
        <path class="cls-1" d="M833.15,1080.18v-450.99c0-51.31,41.59-92.9,92.9-92.9h993.95"/>
        <path class="cls-1" d="M802.36,1080.18v-452.82c0-66.54,53.94-120.49,120.48-120.49h997.16"/>
      </g>
      <g>
        <path class="cls-1" d="M507.25,1080.18v-236.9c0-37.36-23.68-67.64-60.85-67.64H0"/>
        <path class="cls-1" d="M541.19,1080.18v-237.66c0-55.74-40.12-100.93-95.58-100.93H0"/>
        <path class="cls-1" d="M575.13,1080.18v-238.41c0-74.13-56.56-134.22-130.31-134.22H0"/>
        <path class="cls-1" d="M609.07,1080.18v-239.17c0-92.51-73-167.51-165.05-167.51H0"/>
        <path class="cls-1" d="M643.01,1080.18v-239.93c0-110.9-89.44-200.8-199.78-200.8H0"/>
      </g>
    </g>
  </g>
</svg>