<?xml version="1.0" encoding="UTF-8"?>
<svg xmlns="http://www.w3.org/2000/svg" version="1.1" viewBox="0 0 1920 1080">
  <defs>
    <style>
      .cls-1 {
        fill: none;
        stroke: #000;
        stroke-miterlimit: 10;
      }
    </style>
  </defs>
  <!-- Generator: Adobe Illustrator 28.6.0, SVG Export Plug-In . SVG Version: 1.2.0 Build 709)  -->
  <g>
    <g id="Layer_1">
      <g>
        <path class="cls-1" d="M1327.09,1080c-24.89-67.85-39.37-138.96-66.02-205.55-60.18-89.64-232.59-51.49-253.09-182.75-4.95-38.5.33-127.23-55.8-100.21-36.94,19.04-74.31,62.97-67.91,116.14,4.33,38.67,34.84,71.46,15.54,112.14-21.22,50.06-54.67,86.03-88.82,121.47-40.13,34.44-70.67,80.36-46.74,138.76"/>
        <path class="cls-1" d="M732.65,1080c-43.2-71.82-136.36-71.32-205.15-77.4-3.76-.33-7.54-.22-11.3.19-34.28,3.74-65.98-9.9-75.38-52.21-38.11-128.46-132.42-214.51-163.77-345.91-12.15-57.88-38.78-85.32-60.19-136.92-30.07-93.02-26.35-247.92,41.77-318.03,89.75-69.26,137.7,91.8,215.91,117.83,57.02,27.86,114.96-34.15,170.08-20.45,32.54,5.97,47.42,52.72,33.39,86.19-23.15,66.66-51.68,139.31-41.08,208.88,16.04,114.86,46.47,229.64,103.18,327.41,41.92,47.05,99.06-18.2,100.96-70.81,2.94-38.63-9.77-67.8-.89-105.29,24.11-104.52,136.77-161.49,121.55-286.22,5.46-38.31,54.32-44.52,79.53-64.02,40.69-26.43,71.43-47.77,99.69-69.2,52.38-35.66,50.74-107.08,72.53-163.4,29.24-76.14,130.33-101.59,174.85-26.51,46.57,80.46,18.72,242.33-73.55,270.18-63.66,29.02-114.73,97.42-178.82,131.71-80.72,42.55-117.93,178.01-54.79,256.22,41.95,46.2,100.38,54.22,155.36,71.94,51.31,14.53,54.35,75.15,63.1,123.71,8.61,51.89,32.32,94.81,50.12,142.1"/>
        <path class="cls-1" d="M266.27,1080c40.71-19.5,105.58-25.7,121.72-79.43,21.06-151.21-104.33-255.99-172.86-369.64-54.79-116.49-48.89-326.69-4.21-448.21,90.95-181.27,157.6-28.13,248.57,43.31,80.63,57.62,160.16-79.26,240.59-19.13,40.48,23.69,61.39,82.74,112.83,77.39,56.48-6.7,115.27,22.53,172.62,18.22,64.65-10.11,133.71-45.9,168.98-102.06,22.2-40.43,30.83-98.49,60.39-129.99,84.29-106.08,223.51-22.76,216.35,110.35-3.1,107.24,20.18,190.36-96.88,220.35-61.62,23.92-99.42,72.4-151.49,110.27-75.37,41.79-135.3,165.29-50.01,230.58,41.77,32.59,89.31,30.34,134.88,46.19,82.64,36.03,14.89,137.11,114.23,291.81"/>
        <path class="cls-1" d="M227.2,1080c40.96-30.35,92.44-31.42,121.41-82.27,33.23-76.86-24.14-171.23-71.82-227.49-50.1-60.2-133.1-85.95-131.29-184.81-.82-119.65,12.62-226.91,29.41-343.02,19.25-85,82.65-220.37,170.92-168.25,43.56,32.74,70.93,88.48,115.04,118.14,93.91,64.28,182.82-139.64,304.28-29.16,67.48,59.44,164.12,103.32,249.91,90.11,92.16-17.9,125.62-88.18,166.75-169.3,78.11-126.75,248.59-86.2,266.25,73.24-.48,80.75,57.22,192.78-20.5,246.44-47.57,30.57-113.54,41.4-150.98,78.91-58.93,50.66-226.08,157.03-107.16,244.26,46.48,30.49,106.87,10.46,148.65,48.01,42.19,46.86,13.25,115.22,29.47,172.66,8.88,55.15,52.23,85.93,72.46,132.51"/>
        <path class="cls-1" d="M720.03,1.13c-26.6,57.07-86.8,47.2-127.84,79.98-33.06,31.62-69.12,90.28-117.25,64.98-37.62-21.43-65.79-68.35-79.28-117.05,1.6-74.97,148.78,25.34,187.37-27.9"/>
        <path class="cls-1" d="M1636.75,1080c-.73-82.25-95.61-11.03-132.98-26.98-84.85-24.63-146.84-94.06-129.1-193.6,2.68-30.84,9.07-68.02-5.15-95.78-30.62-66.64-112.7-48.37-163.42-74.71-63.13-49.81,32.08-109.8,65.13-142.06,34.17-32.66,69.45-59.37,114.99-76.59,121.83-46.17,158.33-106.15,103.2-241.25-17.82-90-39.28-188.98-121.05-227.89"/>
        <path class="cls-1" d="M951.15,1.13c37.94,87.41-124.4,163.57,24.07,200.09,132.33,24.43,172.16-173.62,285.71-200.09"/>
        <path class="cls-1" d="M993.34,1.13c15.72,27.68,19.78,58.55,35.68,85.1,49.85,52.65,133.81-69.42,187.59-85.1"/>
        <path class="cls-1" d="M1728.45,1080c-19.09-41.05-60.42-72.93-67.73-119.78,8.79-64.73,68.77-127.27,53.09-196.29-18.71-122.73-170.58-98.5-221.25-17.38-41.33,61.7,32.03,122.01,51.01,176.75,31.61,90.89-128.53,82.55-138.94,5.97-21.93-55.97,33.79-122.14,7.99-176.38-24.85-64.51-139.24-87.72-136.3-128.65,43.11-150.01,270.13-129.01,283.06-292.54-4.25-49.23-46.96-106.36-57.55-153.58-18.29-70.3-52.37-138.48-108.82-176.99"/>
        <path class="cls-1" d="M1041.81,1.13c35.77,44.7,90.77,23.23,132.29,0"/>
        <path class="cls-1" d="M1569.19,1.13c6.75,154.27,201.74,59.96,162.59,162.44-43.71,106.69-84.73,180.42-171.7,57.04-43.96-72.94-71.35-169.78-142.47-219.48"/>
        <path class="cls-1" d="M1920,37.76c-35.52,15-74.69,28.17-112.99,27.5-29.54.87-31.95-40.49-39.07-64.13"/>
        <path class="cls-1" d="M1779.36,1080c-119.9-154.36-69.67-120.31-44.46-292.18,7.47-137-133.4-161-219.49-101.31-37.39,25.93-77.82,25.23-109.72-8.93-22.5-18.72-60.07-53.75-46.8-89.46,42.76-88.41,167.26-98.13,234.97-190.82,116.28-159.59,164.76,181.21,326.14,206.7"/>
        <path class="cls-1" d="M1814.16,1080c-24.25-51.05-82.47-87.51-85.05-149.58-1.15-45.53,22.88-97.79,23.8-139.43,7.27-86.25-38.95-155.71-122.04-158.07-56.97-7.55-104.66,31.06-159.81,30.22-33.52-5.32-67.52-37.89-56.85-76.54,29.57-62.63,112.27-80.09,158.9-121.28,171.52-134.69,165.44,140.24,346.9,167.08"/>
        <path class="cls-1" d="M1441.92,1.13c45.25,34.12,104.96,115.55,105.1,0"/>
        <path class="cls-1" d="M1818.53,1.13c20.18,11.69,45.11,9.23,66.61,0"/>
        <path class="cls-1" d="M296.51,1.13C138.46,113.11,142.82,343.2,110.56,525.87c-14.05,92.55-5.52,157.21-110.56,155.54"/>
        <path class="cls-1" d="M245.65,1.13c-47.03,76.86-85.64,151.29-106.21,234.63-15.38,84.25-25.45,164.62-43,246.38-13.09,66.87-21.24,159.8-96.43,172.07"/>
        <path class="cls-1" d="M215.37,1.13c-30.29,70.97-66.94,141.2-87.66,214.51-30.29,97.8-39.64,375.75-127.7,409.23"/>
        <path class="cls-1" d="M1848.4,1080c-101.5-172.68-102.78-96.83-68.38-311.1-7.73-192.67-25.1-127.76,139.98-96.8"/>
        <path class="cls-1" d="M189.38,1.13c-29.54,91.6-81.86,182.23-93.44,276.73-22.19,96.32-27.11,245.74-95.94,314.47"/>
        <path class="cls-1" d="M161.21,1.13c-25.02,98.12-67.35,159.8-85.4,256.78C56.92,353.24,50.15,462.15,0,547.76"/>
        <path class="cls-1" d="M191.1,1080c32.97-35.93,75.06-43.16,109.44-76,78.68-75.81-52.37-270.4-134.4-233.43-11.75,5.29-20.36,15.78-23.6,28.25-28.41,109.55-28.73,180.66-142.54,233.33"/>
        <path class="cls-1" d="M134.08,1.13c-14.51,71.3-48.91,133.78-70.91,202.22C40,293.82,34.09,399.86,0,488.08"/>
        <path class="cls-1" d="M98.85,1.13c-9.01,52.09-32,104.77-54.25,152.39C13.77,220.65,14.34,288.82,0,360.67"/>
        <path class="cls-1" d="M0,752.82c92.4,23.17,71.87,176.12,0,215.31"/>
        <path class="cls-1" d="M0,719.2c147.63.8,102.85,242.22,0,281.94"/>
        <path class="cls-1" d="M1920,572.05c-95.75-33-161.65-150.92-186.4-255.71-1.1-59.12,36.99-125.83,69.09-167.81,25.65-33.08,76.95-49.76,117.32-62.09"/>
        <path class="cls-1" d="M1878.99,1080c-16.8-67-93.27-112.64-90.67-185.55,3.87-48.41,19.14-98.3,32.19-145.28,13.85-47.67,65.17-37.04,99.49-32.86"/>
        <path class="cls-1" d="M745.45,660.17c-88.57-31.89-93.5-206.96-25.12-265.55,54.34-53.39,140.89,11.67,147.23,83.47,1.99,59.3-71,170.46-122.11,182.09Z"/>
        <path class="cls-1" d="M0,1058.97c178.96-68.92,127.26-144.71,182.51-212.09,10.82-13.2,28.78-18.56,44.89-12.9,39.15,13.75,67.21,69.4,60.94,113.84-15.64,68.36-103.09,69.19-131.04,132.18"/>
        <path class="cls-1" d="M1920,545.77c-173.12-79.85-208.97-363.55,0-421.48"/>
        <path class="cls-1" d="M682.11,1080c-51.83-30.89-131.9-43.96-180.54,0"/>
        <path class="cls-1" d="M1916.53,1080c-10.49-57.02-52.98-97.88-77.22-149.24-25.66-60.26,16.8-152.42,80.69-146.81"/>
        <path class="cls-1" d="M425.42,1080c-27.86-19.35-64.63-3.8-96.31,0"/>
        <path class="cls-1" d="M1920,514.48c-132.69-64.61-156.01-301.41,0-351.49"/>
        <path class="cls-1" d="M121.48,1080c-10.88-61.33-82.09,0-116.5,0"/>
        <path class="cls-1" d="M1920,488.79c-104.63-58.27-116.23-247.37,0-295.61"/>
        <path class="cls-1" d="M1920,457.69c-70.79-49.02-79.56-183.41,0-231.55"/>
        <path class="cls-1" d="M1920,419.23c-37.2-37.07-37.76-114.89,0-153.1"/>
        <path class="cls-1" d="M782.26,1.13c-44.24,119.44,131.75,96.88,121.42,0"/>
        <path class="cls-1" d="M504.57,633.06c-37.25-6.62-38.93-77.63-6.43-89.21,34.83,1.07,44.59,84.11,6.43,89.21Z"/>
        <path class="cls-1" d="M1636.34,595.41c27.58-1.77,58.02,12.06,84.4,7.28,8.92-1.62,15.1-9.86,14.07-18.87-5.43-47.54-53.32-104.58-96.5-92.35-24.54,2.18-174.3,85.46-118.89,107.57,35.7,3.56,70.36-6.61,106.03-3.82,3.62.28,7.26.42,10.88.19Z"/>
        <path class="cls-1" d="M513.83,699.88c-125.66,4.18-101.75-316.05,19.13-237.12,30.29,50.56,70.17,231.98-19.13,237.12Z"/>
        <path class="cls-1" d="M804.41,1080c-14.24-70.83,140.85-236.42,198.72-257.47,56.05-14.63,128.01,19.13,177.04,35.89,79.59,31.36,91.39,145.01,115.44,221.58"/>
        <path class="cls-1" d="M747.34,598.93c-70.08-15.83-59.62-164.95,11.07-174.66,105.92,1.27,69.89,163.37-11.07,174.66Z"/>
        <path class="cls-1" d="M752.94,744.53c-38.85-13.75-51.22-53.21-70.69-95.8-49.42-111.18-32.9-259.83,63.16-326.82,20.65-14.4,48.08-14.08,68.17,1.1,27.15,20.51,49.32,53,70.06,80.28,44.24,67.09,11.41,132.71-28.16,186.35-38.03,39.3-65.03,146.91-102.54,154.89Z"/>
        <path class="cls-1" d="M0,798.88c39.25,25.74,30.38,95.97,0,125.66"/>
        <path class="cls-1" d="M898.67,1080c39.28-196.96,312.18-235.17,322.05,0"/>
        <path class="cls-1" d="M866.12,1080c55.13-231.57,356.48-279.48,380.13,0"/>
        <path class="cls-1" d="M835.18,1080c10.04-90.56,118.64-200.65,196.6-221.66,139.36-15.25,218.54,67.76,239.61,221.66"/>
        <path class="cls-1" d="M536.43,753.45c-220.28-37.56-81.35-257.1-185.84-318.39-104.36-45.73-99.82-219.93-16.42-180.28,74.86,52.73,84.05,147.44,190.99,131.36,69.35,5.42,45.25,104.71,58.96,157.2,4.73,65.52,34.01,197.11-47.69,210.11Z"/>
        <path class="cls-1" d="M941.69,1080c12.94-159.13,254.73-182.35,247.15,0"/>
        <path class="cls-1" d="M561.16,831.49c-140.79-66.03-189.07-106.84-203.52-297.77-7.92-47.39-52.49-76.7-81.73-110.6-39.47-50.29-51.18-156.01-5.13-204.94,14.44-15.34,37.13-19.85,56.22-10.94,41.87,19.53,72.92,75.77,108.99,105.23,46.24,63.09,159.45-17.98,166.48,77.51.55,56.08-5.73,101.04,1.4,154.76,3.09,39.09,26.66,193.93,8.24,263.26-5.84,21.98-30.37,33.14-50.95,23.48Z"/>
        <path class="cls-1" d="M627.68,960.52c-99.97-5.35-175.71-112.76-242.57-190.94-61.1-72.07-48.47-175.08-88.44-253.07-37.26-49.91-79.5-88.19-80.11-162.37-13.67-137.36,63.76-279.42,172.54-133.53,35.26,38.86,74.85,85.19,127.49,79.57,58.34-10.62,144.95-37.18,125.06,68.84-33.25,114.73-11.51,233.02,8.87,346.97,2.92,65.65,84.9,243.15-22.85,244.55Z"/>
        <path class="cls-1" d="M1309.15,108.92c-37.53,6.61-27.59,77.12,9.62,63.73,28.36-13.76,23.19-65.53-9.62-63.73Z"/>
        <path class="cls-1" d="M1606.61,752.85c-43.07,9.29-33.49,80.66,7.34,79.12,49.44-4.11,40.89-88.92-7.34-79.12Z"/>
        <path class="cls-1" d="M1608.02,723.72c-76.57,9.75-76.19,116.3-10.62,140.67,87.14,26.1,106.47-152.11,10.62-140.67Z"/>
        <path class="cls-1" d="M1304.94,76.73c-70.03,8.75-74.18,152.08-1.09,152.62,79.55-3.33,89.56-159.74,1.09-152.62Z"/>
        <path class="cls-1" d="M989.41,1080c-17.08-118.34,189.69-129.18,162.71,0"/>
        <path class="cls-1" d="M1608.02,699.19c-133.36,18.91-102.86,183.96,5.23,210.75,101.74-20.69,115.84-220.21-5.23-210.75Z"/>
        <path class="cls-1" d="M1302.14,53.73c-119.19,22.1-55.29,174.93-103.35,253.59-18.66,20.52-46.23,27.65-62.61,51.54-11.86,10.78-4.99,35.49,11.72,30.06,23.99-5.91,40.15-26.23,54.43-43.92,22.47-30.92,69.29-36.14,102.66-49.54,103.56-27.85,126.87-246.51-2.85-241.73Z"/>
        <path class="cls-1" d="M1590.51,1.13c7.45,83.04,148.49,95.73,145.93,0"/>
        <path class="cls-1" d="M1614.98,1.13c14.98,46.19,80.57,48.4,92.03,0"/>
      </g>
    </g>
  </g>
</svg>