<?xml version="1.0" encoding="UTF-8"?>
<svg xmlns="http://www.w3.org/2000/svg" version="1.1" viewBox="0 0 329.13 58.33">
  <!-- Generator: Adobe Illustrator 28.6.0, SVG Export Plug-In . SVG Version: 1.2.0 Build 709)  -->
  <g>
    <g id="Layer_1">
      <g>
        <g>
          <path d="M231.16,1.25v34.62S210.66,1.25,210.66,1.25h-17.12v55.83h14.28V21.7s20.78,35.38,20.78,35.38h16.8V1.25h-14.23Z"/>
          <path d="M162.54.6h-.11c-15.37,0-27.7,12.77-27.7,28.56s12.34,28.56,27.7,28.56h.11c15.37,0,27.59-12.88,27.59-28.56S177.91.6,162.54.6ZM162.54,43.45h-.11c-7.57,0-13.41-6.38-13.41-14.28s5.84-14.27,13.41-14.27h.11c7.36,0,13.32,6.49,13.32,14.28,0,7.89-5.85,14.27-13.32,14.27Z"/>
          <path d="M49.99,1.22L17.06,57.1H0V1.22s14.23,0,14.23,0v35.33L35.11,1.22h14.88Z"/>
          <path d="M85.13,42.36c.77,1.14,1.78,1.99,3.04,2.54,1.25.55,2.65.83,4.2.83,1.91,0,3.53-.44,4.86-1.33,1.33-.88,1.99-2.13,1.99-3.76,0-1.4-.52-2.47-1.55-3.2-1.03-.74-2.69-1.4-4.97-1.99l-6.96-1.66c-5.23-1.33-9.04-3.41-11.43-6.24-2.39-2.83-3.59-6.39-3.59-10.66,0-3.31.9-6.26,2.71-8.84,1.8-2.58,4.33-4.57,7.57-5.97,3.24-1.4,6.89-2.1,10.94-2.1s7.49.9,10.55,2.71c3.06,1.81,5.41,4.14,7.07,7.01,1.66,2.87,2.49,5.85,2.49,8.95h-13.03c-.07-2.06-.77-3.76-2.1-5.08-1.33-1.33-3.02-1.99-5.08-1.99s-3.59.5-4.81,1.49-1.82,2.19-1.82,3.59c0,1.18.37,2.12,1.1,2.82.74.7,1.84,1.2,3.31,1.49l7.62,1.88c5.52,1.33,9.7,3.44,12.54,6.35,2.83,2.91,4.21,6.43,4.14,10.55-.07,3.9-1.09,7.24-3.04,10-1.95,2.76-4.58,4.88-7.9,6.35-3.31,1.47-7.07,2.21-11.27,2.21-4.71,0-8.75-.98-12.1-2.93-3.35-1.95-5.91-4.45-7.68-7.51-1.77-3.06-2.65-6.2-2.65-9.44h14.69c0,1.47.39,2.78,1.16,3.92Z"/>
          <path d="M65.87,1.22h-14.01v55.88h14.01V1.22h0Z"/>
          <path d="M131.33,1.22h-14.01v55.88h14.01V1.22h0Z"/>
        </g>
        <g>
          <path d="M262.7,49h23.23v8.08h-35.97c0-2.95.08-6.76.08-6.76,6.29-5.83,12.74-11.58,19.04-17.33,5.05-4.74,8.86-8.86,8.86-14.22,0-5.98-4.27-9.95-10.02-9.95-3.03,0-5.52,1.09-7.3,2.95-2.25,2.18-3.42,5.52-3.34,9.17h-8.16c0-6.06,1.86-11.11,5.05-14.68,3.34-3.57,8-5.59,13.67-5.59,10.72,0,18.26,7.15,18.26,17.87,0,8.31-5.05,13.91-10.33,18.72-4.43,3.89-8.7,7.85-13.05,11.73Z"/>
          <path d="M309.86,57.54c-13.6,0-20.28-11.97-20.28-26.42,0-10.49,2.18-19.81,7.54-25.33,3.11-3.26,7.38-5.13,12.9-5.13,13.44,0,17.56,10.88,17.87,15.46h-8c-.39-2.41-2.95-7.77-9.79-7.77-7.3,0-12.35,7.69-12.35,18.73,1.48-2.49,6.45-7.23,13.44-7.23,9.63,0,17.95,8.16,17.95,18.18s-7.15,19.5-19.27,19.5ZM309.94,27.32c-6.29,0-11.11,5.05-11.11,11.19s4.89,11.03,11.11,11.03,11.11-4.9,11.11-11.03-4.82-11.19-11.11-11.19Z"/>
        </g>
      </g>
    </g>
  </g>
</svg>