<?xml version="1.0" encoding="UTF-8"?>
<svg xmlns="http://www.w3.org/2000/svg" version="1.1" viewBox="0 0 1920 1080">
  <defs>
    <style>
      .cls-1, .cls-2, .cls-3, .cls-4, .cls-5 {
        font-size: 16px;
      }

      .cls-1, .cls-2, .cls-4 {
        letter-spacing: .02em;
      }

      .cls-1, .cls-4, .cls-5 {
        font-family: MaisonNeue-Book, 'Maison Neue';
      }

      .cls-2, .cls-3 {
        font-family: MaisonNeue-Demi, 'Maison Neue';
        font-weight: 300;
      }

      .cls-2, .cls-3, .cls-6, .cls-7, .cls-4, .cls-5, .cls-8 {
        fill: #fff;
      }

      .cls-3, .cls-5 {
        letter-spacing: .02em;
      }

      .cls-6, .cls-9 {
        stroke: #fff;
      }

      .cls-8 {
        font-family: ABCDiatype-Medium, 'ABC Diatype';
        font-size: 22.81px;
        font-weight: 500;
      }

      .cls-10 {
        letter-spacing: 0em;
      }

      .cls-11 {
        letter-spacing: 0em;
      }

      .cls-12 {
        stroke: #000;
      }

      .cls-12, .cls-9 {
        fill: none;
      }
    </style>
  </defs>
  <!-- Generator: Adobe Illustrator 28.6.0, SVG Export Plug-In . SVG Version: 1.2.0 Build 709)  -->
  <g>
    <g id="back">
      <rect width="1920" height="1080"/>
    </g>
    <g id="Layer_1">
      <rect class="cls-9" x="22.32" y="22.77" width="377.52" height="1036.89" rx="31.94" ry="31.94"/>
      <text class="cls-8" transform="translate(197.18 1030.6)"><tspan x="0" y="0">Associ</tspan><tspan class="cls-10" x="69.13" y="0">a</tspan><tspan class="cls-11" x="80.83" y="0">t</tspan><tspan x="88.83" y="0">e.Studio</tspan></text>
      <g>
        <path class="cls-7" d="M110.96,1020.65h-28.39c-2.66,0-4.82-2.16-4.82-4.82s2.16-4.83,4.82-4.83h28.39c2.66,0,4.83,2.16,4.83,4.83s-2.17,4.82-4.83,4.82"/>
        <path class="cls-7" d="M53.11,1033.5c-.84,0-1.7-.23-2.48-.69-2.28-1.37-3.02-4.34-1.64-6.62l33.92-56.43c1.37-2.28,4.34-3.02,6.61-1.64,2.28,1.37,3.02,4.33,1.64,6.61l-33.93,56.43c-.9,1.5-2.5,2.34-4.13,2.34"/>
        <path class="cls-7" d="M140.42,1033.5c-1.63,0-3.23-.83-4.14-2.34l-33.93-56.43c-1.37-2.28-.64-5.25,1.64-6.61,2.28-1.37,5.25-.64,6.61,1.64l33.94,56.43c1.37,2.28.64,5.25-1.64,6.62-.79.48-1.64.69-2.49.69"/>
      </g>
      <g>
        <rect class="cls-9" x="216.11" y="443.66" width="157.25" height="42" rx="21" ry="21"/>
        <rect class="cls-9" x="47.29" y="443.66" width="157.25" height="42" rx="21" ry="21"/>
        <polygon class="cls-7" points="133.61 464.66 119.75 456.66 119.75 472.66 133.61 464.66"/>
        <g>
          <rect class="cls-7" x="286.76" y="456.66" width="5.22" height="15.96"/>
          <rect class="cls-7" x="297.5" y="456.66" width="5.22" height="15.96"/>
        </g>
      </g>
      <g>
        <text class="cls-4" transform="translate(189.21 916.53)"><tspan x="0" y="0">Video</tspan></text>
        <rect class="cls-9" x="47.29" y="890.38" width="328.02" height="42" rx="21" ry="21"/>
      </g>
      <g>
        <text class="cls-4" transform="translate(82.21 857.01)"><tspan x="0" y="0">PNG</tspan></text>
        <text class="cls-4" transform="translate(195.69 857.01)"><tspan x="0" y="0">JPG</tspan></text>
        <text class="cls-4" transform="translate(309.38 857.01)"><tspan x="0" y="0">SVG</tspan></text>
        <rect class="cls-9" x="47.29" y="830.86" width="101.52" height="42" rx="21" ry="21"/>
        <rect class="cls-9" x="160.54" y="830.86" width="101.52" height="42" rx="21" ry="21"/>
        <rect class="cls-9" x="273.79" y="830.86" width="101.52" height="42" rx="21" ry="21"/>
      </g>
      <line class="cls-9" x1="46.86" y1="949.91" x2="375.31" y2="949.91"/>
      <g>
        <circle class="cls-9" cx="442.83" cy="43.03" r="20.88"/>
        <line class="cls-9" x1="435.94" y1="49.93" x2="449.73" y2="36.14"/>
        <line class="cls-9" x1="449.73" y1="49.93" x2="435.94" y2="36.14"/>
      </g>
      <g>
        <line class="cls-9" x1="46.19" y1="121.88" x2="375.31" y2="121.88"/>
        <text class="cls-3" transform="translate(46.51 142.6)"><tspan x="0" y="0">PATTERN</tspan></text>
      </g>
      <g>
        <text class="cls-2" transform="translate(46.51 250.4)"><tspan x="0" y="0">THEME</tspan></text>
        <line class="cls-9" x1="46.86" y1="228.04" x2="375.31" y2="228.04"/>
      </g>
      <g>
        <text class="cls-2" transform="translate(46.51 358.21)"><tspan x="0" y="0">MOTION</tspan></text>
        <line class="cls-9" x1="46.86" y1="335.85" x2="375.31" y2="335.85"/>
      </g>
      <g>
        <text class="cls-3" transform="translate(46.51 582.74)"><tspan x="0" y="0">PATTERN CONTROLS</tspan></text>
        <line class="cls-9" x1="46.86" y1="560.38" x2="375.31" y2="560.38"/>
      </g>
      <g>
        <text class="cls-2" transform="translate(46.51 804.94)"><tspan x="0" y="0">EXPORTS</tspan></text>
        <line class="cls-9" x1="46.86" y1="782.58" x2="375.31" y2="782.58"/>
      </g>
      <g>
        <rect class="cls-7" x="47.29" y="168.52" width="326.07" height="42" rx="21" ry="21"/>
        <text class="cls-1" transform="translate(70.08 194.55)"><tspan x="0" y="0">Pathways</tspan></text>
        <polyline class="cls-12" points="344.99 185.64 352.22 193.4 359.44 185.64"/>
      </g>
      <g>
        <rect class="cls-9" x="216.11" y="384.13" width="157.25" height="42" rx="21" ry="21"/>
        <rect class="cls-6" x="47.29" y="384.13" width="157.25" height="42" rx="21" ry="21"/>
        <text class="cls-1" transform="translate(102.62 409.65)"><tspan x="0" y="0">Active</tspan></text>
        <text class="cls-4" transform="translate(266.2 409.65)"><tspan x="0" y="0">Passive</tspan></text>
      </g>
      <g>
        <rect class="cls-7" x="47.29" y="276.33" width="326.07" height="42" rx="21" ry="21"/>
        <text class="cls-1" transform="translate(70.08 302.36)"><tspan x="0" y="0">Light Mode (White + Gray)</tspan></text>
        <polyline class="cls-12" points="344.99 293.44 352.22 301.21 359.44 293.44"/>
      </g>
      <g>
        <rect class="cls-9" x="47.29" y="723.05" width="326.07" height="42" rx="21" ry="21"/>
        <text class="cls-4" transform="translate(188.93 749.09)"><tspan x="0" y="0">Reset</tspan></text>
      </g>
      <g>
        <line class="cls-9" x1="46.86" y1="616.97" x2="375.31" y2="616.97"/>
        <g>
          <text class="cls-4" transform="translate(346.69 643.84)"><tspan x="0" y="0">0%</tspan></text>
          <text class="cls-5" transform="translate(46.12 643.84)"><tspan x="0" y="0">Density</tspan></text>
          <circle class="cls-7" cx="54.42" cy="616.97" r="8.31"/>
        </g>
      </g>
      <g>
        <text class="cls-4" transform="translate(346.69 538.35)"><tspan x="0" y="0">0%</tspan></text>
        <text class="cls-4" transform="translate(46.12 538.35)"><tspan x="0" y="0">Speed</tspan></text>
        <line class="cls-9" x1="46.86" y1="511.48" x2="375.31" y2="511.48"/>
        <circle class="cls-7" cx="54.42" cy="511.48" r="8.31"/>
      </g>
      <g>
        <line class="cls-9" x1="46.86" y1="674.16" x2="375.31" y2="674.16"/>
        <g>
          <text class="cls-4" transform="translate(356.8 701.03)"><tspan x="0" y="0">10</tspan></text>
          <text class="cls-4" transform="translate(46.12 701.03)"><tspan x="0" y="0">Seed</tspan></text>
          <circle class="cls-7" cx="54.42" cy="674.16" r="8.31"/>
        </g>
      </g>
      <g>
        <g>
          <path class="cls-7" d="M277.35,47.28v34.62s-20.5-34.62-20.5-34.62h-17.12v55.83h14.28v-35.38s20.78,35.38,20.78,35.38h16.8v-55.83h-14.23Z"/>
          <path class="cls-7" d="M208.73,46.64h-.11c-15.37,0-27.7,12.77-27.7,28.56s12.34,28.56,27.7,28.56h.11c15.37,0,27.59-12.88,27.59-28.56s-12.23-28.56-27.59-28.56ZM208.73,89.48h-.11c-7.57,0-13.41-6.38-13.41-14.28s5.84-14.27,13.41-14.27h.11c7.36,0,13.32,6.49,13.32,14.28,0,7.89-5.85,14.27-13.32,14.27Z"/>
          <path class="cls-7" d="M96.18,47.26l-32.93,55.88h-17.06v-55.88s14.23,0,14.23,0v35.33l20.88-35.33h14.88Z"/>
          <path class="cls-7" d="M131.32,88.4c.77,1.14,1.78,1.99,3.04,2.54,1.25.55,2.65.83,4.2.83,1.91,0,3.53-.44,4.86-1.33,1.33-.88,1.99-2.13,1.99-3.76,0-1.4-.52-2.47-1.55-3.2-1.03-.74-2.69-1.4-4.97-1.99l-6.96-1.66c-5.23-1.33-9.04-3.41-11.43-6.24-2.39-2.83-3.59-6.39-3.59-10.66,0-3.31.9-6.26,2.71-8.84,1.8-2.58,4.33-4.57,7.57-5.97,3.24-1.4,6.89-2.1,10.94-2.1s7.49.9,10.55,2.71c3.06,1.81,5.41,4.14,7.07,7.01,1.66,2.87,2.49,5.85,2.49,8.95h-13.03c-.07-2.06-.77-3.76-2.1-5.08-1.33-1.33-3.02-1.99-5.08-1.99s-3.59.5-4.81,1.49-1.82,2.19-1.82,3.59c0,1.18.37,2.12,1.1,2.82.74.7,1.84,1.2,3.31,1.49l7.62,1.88c5.52,1.33,9.7,3.44,12.54,6.35,2.83,2.91,4.21,6.43,4.14,10.55-.07,3.9-1.09,7.24-3.04,10-1.95,2.76-4.58,4.88-7.9,6.35-3.31,1.47-7.07,2.21-11.27,2.21-4.71,0-8.75-.98-12.1-2.93-3.35-1.95-5.91-4.45-7.68-7.51-1.77-3.06-2.65-6.2-2.65-9.44h14.69c0,1.47.39,2.78,1.16,3.92Z"/>
          <path class="cls-7" d="M112.06,47.26h-14.01v55.88h14.01v-55.88h0Z"/>
          <path class="cls-7" d="M177.51,47.26h-14.01v55.88h14.01v-55.88h0Z"/>
        </g>
        <g>
          <path class="cls-7" d="M308.88,95.03h23.23v8.08h-35.97c0-2.95.08-6.76.08-6.76,6.29-5.83,12.74-11.58,19.04-17.33,5.05-4.74,8.86-8.86,8.86-14.22,0-5.98-4.27-9.95-10.02-9.95-3.03,0-5.52,1.09-7.3,2.95-2.25,2.18-3.42,5.52-3.34,9.17h-8.16c0-6.06,1.86-11.11,5.05-14.68,3.34-3.57,8-5.59,13.67-5.59,10.72,0,18.26,7.15,18.26,17.87,0,8.31-5.05,13.91-10.33,18.72-4.43,3.89-8.7,7.85-13.05,11.73Z"/>
          <path class="cls-7" d="M356.04,103.58c-13.6,0-20.28-11.97-20.28-26.42,0-10.49,2.18-19.81,7.54-25.33,3.11-3.26,7.38-5.13,12.9-5.13,13.44,0,17.56,10.88,17.87,15.46h-8c-.39-2.41-2.95-7.77-9.79-7.77-7.3,0-12.35,7.69-12.35,18.73,1.48-2.49,6.45-7.23,13.44-7.23,9.63,0,17.95,8.16,17.95,18.18s-7.15,19.5-19.27,19.5ZM356.12,73.36c-6.29,0-11.11,5.05-11.11,11.19s4.89,11.03,11.11,11.03,11.11-4.9,11.11-11.03-4.82-11.19-11.11-11.19Z"/>
        </g>
      </g>
    </g>
  </g>
</svg>